<svg width="20" height="20" viewBox="0 0 20 20" fill="none" xmlns="http://www.w3.org/2000/svg">
  <g id="purchase-icon" clip-path="url(#clip0)">
    <path d="M17.1848 5.6895H15.1548L13.9248 1.9895C13.7448 1.2205 13.0148 0.689499 12.1848 0.689499C11.3548 0.689499 10.6248 1.2205 10.4448 1.9895L9.21482 5.6895H1.18482C0.534817 5.6895 0.00481677 6.2195 0.00481677 6.8695C0.00481677 7.3095 0.264817 7.6995 0.644817 7.8995L7.26482 9.7995L5.72482 14.9995H3.44482C2.79482 14.9995 2.26482 15.5295 2.26482 16.1795C2.26482 16.9995 2.96482 17.6695 3.80482 17.6695H16.5648C17.4048 17.6695 18.1048 16.9995 18.1048 16.1795C18.1048 15.5295 17.5748 14.9995 16.9248 14.9995H14.6748L14.2548 12.9995H16.0048C16.6548 12.9995 17.1848 12.4695 17.1848 11.8195C17.1848 11.4995 17.0248 11.2295 16.7548 11.1195L10.1148 9.1195L10.1948 9.4595L10.4448 11.9995L8.47482 11.1695L7.54482 7.9995H12.7948L14.5448 11.9995L14.7648 13.3395L17.4848 14.3695C17.6748 14.4295 17.7948 14.5995 17.7948 14.7895C17.7948 14.9795 17.6748 15.1495 17.4848 15.2095L15.5648 16.0695L16.4148 19.3795C16.4448 19.5395 16.3548 19.6895 16.1948 19.7395C16.1448 19.7595 16.0848 19.7695 16.0148 19.7695C15.9048 19.7695 15.7948 19.7195 15.7448 19.6095L14.4948 16.6095L12.1048 15.4295L13.4448 19.7395C13.4648 19.8895 13.3648 20.0395 13.2148 20.0995C13.0948 20.1495 12.9648 20.1395 12.8548 20.0795C12.7548 20.0295 12.6948 19.9295 12.6948 19.8295C12.6948 19.7695 12.7148 19.7195 12.7448 19.6795L14.0848 15.9395H7.33482L6.17482 9.1895L17.3348 6.3495C17.4948 6.3095 17.6348 6.2395 17.7348 6.1495C17.9648 5.9395 18.0748 5.5695 17.9648 5.2095C17.8548 4.8495 17.5448 4.6395 17.1848 4.6395" fill="#1C1D22"/>
  </g>
  <defs>
    <clipPath id="clip0">
      <rect width="20" height="20" fill="white"/>
    </clipPath>
  </defs>
</svg>
