<svg width="12" height="15" viewBox="0 0 12 15" fill="none" xmlns="http://www.w3.org/2000/svg">
<path d="M11.272 9.3675L10.522 8.1225C10.3645 7.845 10.222 7.32 10.222 7.0125V5.115C10.222 3.3525 9.18705 1.83 7.69455 1.1175C7.30455 0.4275 6.58455 0 5.75955 0C4.94205 0 4.20705 0.4425 3.81705 1.14C2.35455 1.8675 1.34205 3.375 1.34205 5.115V7.0125C1.34205 7.32 1.19955 7.845 1.04205 8.115L0.284547 9.3675C-0.0154529 9.87 -0.0829531 10.425 0.104547 10.935C0.284547 11.4375 0.712047 11.8275 1.26705 12.015C2.72205 12.51 4.25205 12.75 5.78205 12.75C7.31205 12.75 8.84205 12.51 10.297 12.0225C10.822 11.85 11.227 11.4525 11.422 10.935C11.617 10.4175 11.5645 9.8475 11.272 9.3675Z" fill="#D23565"/>
<path d="M7.88949 13.5075C7.57449 14.3775 6.74199 15 5.76699 15C5.17449 15 4.58949 14.76 4.17699 14.3325C3.93699 14.1075 3.75699 13.8075 3.65199 13.5C3.74949 13.515 3.84699 13.5225 3.95199 13.5375C4.12449 13.56 4.30449 13.5825 4.48449 13.5975C4.91199 13.635 5.34699 13.6575 5.78199 13.6575C6.20949 13.6575 6.63699 13.635 7.05699 13.5975C7.21449 13.5825 7.37199 13.575 7.52199 13.5525C7.64199 13.5375 7.76199 13.5225 7.88949 13.5075Z" fill="#D23565"/>
</svg>
