<svg width="32" height="33" viewBox="0 0 32 33" fill="none" xmlns="http://www.w3.org/2000/svg">
<g clip-path="url(#clip0_0_47)">
<path d="M19.513 13.4293L17.449 17.0047L15.385 20.5801L13.3265 24.1501L11.2625 20.5801L13.3265 17.0047L15.3904 13.4347L12.2593 8.00662H16.3818L17.4544 9.85933L19.513 13.4293ZM8.13128 8.00662H4.00331L9.19849 17.0047L11.2625 13.4347L8.13128 8.00662ZM25.6562 9.85933L24.5836 8.00662H20.461L23.5922 13.4293L21.5282 17.0047L19.4642 20.5801L21.5282 24.1501L23.5922 20.5801L25.6562 17.0047L27.7202 13.4347L25.6562 9.85933Z" fill="#7F1F67"/>
</g>
<rect x="0.276504" y="0.280261" width="31.7235" height="32.1568" rx="8" fill="#E01461" fill-opacity="0.39"/>
<defs>
<clipPath id="clip0_0_47">
<rect width="23.6973" height="16.1302" fill="white" transform="translate(4.00331 8.00662) scale(1.00083)"/>
</clipPath>
</defs>
</svg>
